<?xml version="1.0" encoding="utf-8"?>
<!-- Generator: Adobe Illustrator 22.0.1, SVG Export Plug-In . SVG Version: 6.00 Build 0)  -->
<svg version="1.1" id="레이어_1" xmlns="http://www.w3.org/2000/svg" xmlns:xlink="http://www.w3.org/1999/xlink" x="0px"
	 y="0px" viewBox="0 0 309.25 70.5" style="enable-background:new 0 0 309.25 70.5;" xml:space="preserve">
<style type="text/css">
	.st0{fill:#183CD3;}
	.st1{fill:#FF2217;}
</style>
<g>
	<g>
		<g>
			<path class="st0" d="M39.447,69.456c6.897-7.041,16.506-11.415,27.141-11.415c3.74,0,7.351,0.549,10.765,1.556
				c-1.296-19.812-17.766-35.483-37.906-35.483S2.837,39.785,1.541,59.597c3.414-1.007,7.024-1.556,10.765-1.556
				C22.94,58.041,32.549,62.415,39.447,69.456z"/>
		</g>
		<g>
			<path class="st1" d="M39.447,46.386c6.897-7.041,16.506-11.415,27.141-11.415c3.74,0,7.351,0.549,10.765,1.556
				C76.056,16.715,59.586,1.044,39.447,1.044S2.837,16.715,1.541,36.527c3.414-1.007,7.024-1.556,10.765-1.556
				C22.94,34.971,32.549,39.345,39.447,46.386z"/>
		</g>
	</g>
	<g>
		<g>
			<path d="M101.549,11.348h-7.281v18.927h-3.951V11.348h-7.281V7.987h18.514V11.348z"/>
			<path d="M122.657,19.131c0,1.809-0.221,3.42-0.663,4.835s-1.076,2.614-1.901,3.597c-0.825,0.983-1.838,1.729-3.037,2.241
				c-1.198,0.511-2.555,0.767-4.068,0.767s-2.869-0.256-4.068-0.767c-1.199-0.511-2.211-1.258-3.036-2.241
				c-0.825-0.982-1.46-2.182-1.901-3.597c-0.442-1.415-0.664-3.026-0.664-4.835c0-1.808,0.222-3.42,0.664-4.835
				c0.441-1.415,1.076-2.614,1.901-3.597c0.825-0.982,1.837-1.729,3.036-2.241c1.199-0.511,2.555-0.766,4.068-0.766
				s2.87,0.255,4.068,0.766c1.199,0.512,2.212,1.258,3.037,2.241c0.825,0.983,1.459,2.182,1.901,3.597
				S122.657,17.323,122.657,19.131z M118.707,19.131c0-1.257-0.123-2.383-0.368-3.375c-0.246-0.992-0.604-1.837-1.076-2.536
				c-0.472-0.697-1.066-1.233-1.784-1.606c-0.718-0.373-1.548-0.56-2.491-0.56s-1.773,0.187-2.491,0.56
				c-0.718,0.374-1.312,0.909-1.783,1.606c-0.472,0.698-0.831,1.543-1.076,2.536c-0.246,0.993-0.368,2.118-0.368,3.375
				c0,2.516,0.481,4.491,1.444,5.926c0.963,1.435,2.388,2.152,4.274,2.152s3.312-0.717,4.275-2.152
				C118.226,23.622,118.707,21.647,118.707,19.131z"/>
			<path d="M143.59,22.757c0,1.336-0.227,2.496-0.679,3.479c-0.452,0.983-1.066,1.794-1.842,2.432
				c-0.777,0.639-1.681,1.115-2.713,1.43c-1.031,0.314-2.138,0.472-3.316,0.472c-1.18,0-2.285-0.158-3.316-0.472
				c-1.032-0.315-1.937-0.792-2.713-1.43c-0.776-0.638-1.391-1.449-1.842-2.432c-0.453-0.982-0.679-2.142-0.679-3.479V7.987h3.95
				v14.771c0,0.767,0.118,1.43,0.354,1.99c0.235,0.56,0.56,1.022,0.973,1.386c0.413,0.364,0.899,0.634,1.459,0.811
				c0.561,0.177,1.165,0.266,1.813,0.266s1.253-0.088,1.813-0.266c0.56-0.177,1.046-0.447,1.459-0.811
				c0.413-0.363,0.737-0.826,0.973-1.386c0.236-0.56,0.354-1.223,0.354-1.99V7.987h3.951V22.757z"/>
			<path d="M165.523,30.275h-4.186l-4.629-8.667h-4.452v8.667h-3.95V7.987h8.107c1.356,0,2.55,0.158,3.582,0.472
				c1.032,0.315,1.892,0.767,2.579,1.356c0.688,0.589,1.204,1.307,1.548,2.152c0.344,0.846,0.517,1.789,0.517,2.831
				c0,1.474-0.335,2.732-1.003,3.773c-0.668,1.042-1.661,1.818-2.978,2.329l4.864,8.903V30.275z M160.688,14.797
				c0-1.002-0.344-1.828-1.031-2.477c-0.688-0.648-1.77-0.973-3.243-0.973h-4.157v6.898h4.157c1.474,0,2.555-0.324,3.243-0.973
				C160.344,16.625,160.688,15.8,160.688,14.797z"/>
			<path d="M171.891,9.461c0,0.453-0.157,0.851-0.472,1.194s-0.728,0.516-1.238,0.516s-0.924-0.172-1.238-0.516
				s-0.472-0.742-0.472-1.194c0-0.452,0.157-0.85,0.472-1.194c0.314-0.344,0.728-0.516,1.238-0.516s0.924,0.172,1.238,0.516
				C171.734,8.611,171.891,9.009,171.891,9.461z M171.301,30.216h-2.24V13.765h2.24V30.216z"/>
			<path d="M188.872,30.216h-2.212v-10.23c0-1.356-0.349-2.461-1.046-3.316c-0.698-0.855-1.666-1.283-2.904-1.283
				c-0.59,0-1.149,0.113-1.681,0.339c-0.53,0.226-0.992,0.545-1.386,0.958c-0.393,0.413-0.702,0.899-0.928,1.459
				c-0.227,0.56-0.34,1.174-0.34,1.842v10.23h-2.211V13.765h2.211v2.211h0.118c0.216-0.314,0.477-0.619,0.781-0.914
				s0.658-0.56,1.062-0.796c0.402-0.236,0.864-0.428,1.386-0.575c0.521-0.147,1.105-0.221,1.754-0.221
				c0.668,0,1.321,0.128,1.961,0.383c0.638,0.255,1.213,0.648,1.725,1.179c0.511,0.531,0.923,1.204,1.238,2.02
				c0.313,0.815,0.472,1.774,0.472,2.874V30.216z"/>
		</g>
		<g>
			<path d="M99.839,53.168c0,0.924-0.191,1.744-0.574,2.461c-0.384,0.719-0.919,1.326-1.607,1.828
				c-0.688,0.502-1.503,0.885-2.446,1.15s-1.976,0.398-3.096,0.398c-1.042,0-2.063-0.129-3.066-0.385
				c-1.002-0.256-1.901-0.658-2.697-1.209c-0.796-0.549-1.44-1.252-1.931-2.107c-0.492-0.855-0.737-1.891-0.737-3.109h2.27
				c0,0.924,0.182,1.699,0.546,2.328c0.363,0.629,0.84,1.135,1.43,1.52c0.59,0.383,1.248,0.652,1.976,0.811
				c0.727,0.156,1.464,0.234,2.211,0.234c1.67,0,3.002-0.348,3.995-1.045c0.992-0.699,1.488-1.646,1.488-2.846
				c0-0.59-0.099-1.109-0.295-1.563c-0.196-0.451-0.521-0.859-0.973-1.225c-0.452-0.363-1.052-0.707-1.799-1.031
				s-1.68-0.643-2.801-0.957c-1.101-0.314-2.103-0.648-3.007-1.004c-0.904-0.354-1.676-0.77-2.314-1.252s-1.135-1.051-1.488-1.711
				c-0.354-0.658-0.531-1.449-0.531-2.373c0-0.863,0.188-1.654,0.561-2.373c0.373-0.717,0.895-1.33,1.563-1.842
				s1.469-0.91,2.402-1.195c0.934-0.283,1.961-0.426,3.081-0.426c1.199,0,2.274,0.172,3.229,0.516
				c0.953,0.344,1.764,0.82,2.432,1.43s1.175,1.322,1.519,2.137c0.344,0.816,0.516,1.705,0.516,2.668h-2.24
				c0-1.453-0.477-2.619-1.43-3.492c-0.953-0.875-2.295-1.313-4.024-1.313c-0.884,0-1.661,0.098-2.329,0.295
				c-0.668,0.195-1.229,0.467-1.68,0.811c-0.453,0.344-0.792,0.746-1.018,1.209c-0.227,0.461-0.339,0.969-0.339,1.518
				c0,0.57,0.112,1.072,0.339,1.504c0.226,0.432,0.575,0.826,1.047,1.18s1.065,0.678,1.783,0.973s1.577,0.58,2.58,0.855
				c1.198,0.334,2.26,0.707,3.184,1.119s1.705,0.881,2.344,1.4c0.639,0.521,1.12,1.121,1.444,1.799S99.839,52.303,99.839,53.168z"/>
			<path d="M117.351,50.484c0,1.277-0.187,2.438-0.56,3.479c-0.374,1.043-0.89,1.938-1.548,2.684
				c-0.659,0.746-1.45,1.326-2.373,1.74c-0.925,0.412-1.927,0.619-3.008,0.619c-1.101,0-2.104-0.207-3.007-0.619
				c-0.904-0.414-1.69-0.994-2.358-1.74c-0.669-0.746-1.185-1.641-1.548-2.684c-0.364-1.041-0.546-2.201-0.546-3.479
				s0.182-2.436,0.546-3.479c0.363-1.041,0.879-1.936,1.548-2.684c0.668-0.746,1.454-1.326,2.358-1.738
				c0.903-0.412,1.906-0.619,3.007-0.619c1.081,0,2.083,0.207,3.008,0.619c0.923,0.412,1.714,0.992,2.373,1.738
				c0.658,0.748,1.174,1.643,1.548,2.684C117.164,48.049,117.351,49.207,117.351,50.484z M115.14,50.484
				c0-0.924-0.118-1.787-0.354-2.594c-0.236-0.807-0.58-1.504-1.032-2.094s-1.007-1.057-1.665-1.4
				c-0.659-0.344-1.4-0.516-2.227-0.516c-0.825,0-1.563,0.172-2.211,0.516s-1.199,0.811-1.65,1.4
				c-0.453,0.59-0.797,1.287-1.032,2.094c-0.236,0.807-0.354,1.67-0.354,2.594s0.117,1.789,0.354,2.596
				c0.235,0.805,0.579,1.502,1.032,2.092c0.451,0.59,1.002,1.057,1.65,1.4s1.386,0.516,2.211,0.516c0.826,0,1.567-0.172,2.227-0.516
				c0.658-0.344,1.213-0.811,1.665-1.4s0.796-1.287,1.032-2.092C115.022,52.273,115.14,51.408,115.14,50.484z"/>
			<path d="M133.595,58.711h-2.212v-2.213h-0.117c-0.217,0.316-0.478,0.619-0.781,0.914c-0.306,0.295-0.659,0.561-1.062,0.797
				c-0.403,0.236-0.865,0.428-1.386,0.574c-0.521,0.148-1.105,0.223-1.754,0.223c-0.669,0-1.322-0.129-1.961-0.385
				s-1.214-0.648-1.725-1.178c-0.511-0.531-0.924-1.205-1.238-2.02c-0.314-0.816-0.472-1.773-0.472-2.875V42.26h2.211v10.23
				c0,1.355,0.349,2.461,1.047,3.316c0.697,0.855,1.666,1.281,2.904,1.281c0.589,0,1.149-0.111,1.68-0.338
				c0.531-0.227,0.992-0.545,1.386-0.959c0.394-0.412,0.703-0.898,0.929-1.459s0.339-1.174,0.339-1.842V42.26h2.212V58.711z"/>
			<path d="M145.122,58.563c-0.275,0.117-0.624,0.221-1.047,0.311c-0.423,0.088-0.811,0.133-1.164,0.133
				c-0.57,0-1.087-0.074-1.548-0.223c-0.463-0.146-0.86-0.393-1.194-0.736c-0.335-0.344-0.595-0.801-0.781-1.371
				c-0.188-0.57-0.28-1.277-0.28-2.123V44.176h-2.948V42.26h2.948v-4.246h2.211v4.246h3.391v1.916h-3.391v10.377
				c0,0.531,0.055,0.963,0.162,1.297c0.108,0.336,0.251,0.596,0.428,0.781c0.177,0.188,0.384,0.311,0.619,0.369
				c0.236,0.059,0.481,0.088,0.737,0.088c0.274,0,0.54-0.014,0.796-0.043c0.255-0.029,0.511-0.094,0.767-0.191L145.122,58.563z"/>
			<path d="M159.981,58.711h-2.212V48.48c0-1.357-0.349-2.463-1.046-3.316c-0.698-0.855-1.666-1.283-2.904-1.283
				c-0.59,0-1.149,0.113-1.681,0.34c-0.53,0.225-0.992,0.545-1.386,0.957c-0.393,0.414-0.702,0.9-0.928,1.459
				c-0.227,0.561-0.34,1.176-0.34,1.844v10.23h-2.211V35.656h2.211v8.815h0.118c0.216-0.314,0.477-0.619,0.781-0.914
				s0.658-0.561,1.062-0.797c0.402-0.234,0.864-0.426,1.386-0.574c0.521-0.146,1.105-0.221,1.754-0.221
				c0.668,0,1.321,0.127,1.961,0.383c0.638,0.256,1.213,0.648,1.725,1.18c0.511,0.531,0.923,1.203,1.238,2.02
				c0.313,0.816,0.472,1.773,0.472,2.875V58.711z"/>
			<path d="M181.443,58.711h-2.535l-8.962-10.732l-2.83,2.92h-0.03v7.813h-2.24v-22.17h2.24v11.32h0.089l10.879-11.32h2.564v0.324
				l-9.198,9.551l10.023,12V58.711z"/>
			<path d="M197.716,50.484c0,1.277-0.187,2.438-0.56,3.479c-0.374,1.043-0.89,1.938-1.548,2.684
				c-0.659,0.746-1.45,1.326-2.373,1.74c-0.925,0.412-1.927,0.619-3.008,0.619c-1.101,0-2.104-0.207-3.007-0.619
				c-0.904-0.414-1.69-0.994-2.358-1.74c-0.669-0.746-1.185-1.641-1.548-2.684c-0.364-1.041-0.546-2.201-0.546-3.479
				s0.182-2.436,0.546-3.479c0.363-1.041,0.879-1.936,1.548-2.684c0.668-0.746,1.454-1.326,2.358-1.738
				c0.903-0.412,1.906-0.619,3.007-0.619c1.081,0,2.083,0.207,3.008,0.619c0.923,0.412,1.714,0.992,2.373,1.738
				c0.658,0.748,1.174,1.643,1.548,2.684C197.53,48.049,197.716,49.207,197.716,50.484z M195.505,50.484
				c0-0.924-0.118-1.787-0.354-2.594c-0.236-0.807-0.58-1.504-1.032-2.094s-1.007-1.057-1.665-1.4
				c-0.659-0.344-1.4-0.516-2.227-0.516c-0.825,0-1.563,0.172-2.211,0.516s-1.199,0.811-1.65,1.4
				c-0.453,0.59-0.797,1.287-1.032,2.094c-0.236,0.807-0.354,1.67-0.354,2.594s0.117,1.789,0.354,2.596
				c0.235,0.805,0.579,1.502,1.032,2.092c0.451,0.59,1.002,1.057,1.65,1.4s1.386,0.516,2.211,0.516c0.826,0,1.567-0.172,2.227-0.516
				c0.658-0.344,1.213-0.811,1.665-1.4s0.796-1.287,1.032-2.092C195.387,52.273,195.505,51.408,195.505,50.484z"/>
			<path d="M209.302,42.23l-0.207,1.857c-0.275-0.059-0.525-0.1-0.751-0.119c-0.227-0.02-0.428-0.029-0.604-0.029
				c-1.102,0-2.02,0.334-2.757,1.002c-0.737,0.67-1.243,1.475-1.519,2.418v11.352h-2.211V42.26h1.946l0.235,1.828h0.118
				c0.491-0.57,1.096-1.066,1.813-1.49c0.717-0.422,1.527-0.633,2.432-0.633c0.255,0,0.516,0.02,0.781,0.059
				S209.085,42.133,209.302,42.23z"/>
			<path d="M224.749,50.75h-11.586c0,0.904,0.104,1.744,0.31,2.521c0.206,0.775,0.525,1.443,0.958,2.004
				c0.432,0.561,0.968,1.002,1.606,1.326s1.391,0.486,2.256,0.486c0.982,0,1.852-0.211,2.608-0.633s1.332-0.979,1.725-1.666
				l1.622,1.15c-0.609,0.904-1.444,1.641-2.506,2.211s-2.211,0.855-3.449,0.855c-1.16,0-2.196-0.203-3.11-0.605
				s-1.686-0.979-2.314-1.725s-1.11-1.641-1.444-2.684c-0.335-1.041-0.502-2.211-0.502-3.508s0.167-2.467,0.502-3.508
				c0.334-1.041,0.811-1.936,1.43-2.684c0.619-0.746,1.36-1.32,2.226-1.725c0.865-0.402,1.838-0.604,2.919-0.604
				c1.08,0,2.039,0.201,2.874,0.604c0.835,0.404,1.543,0.979,2.123,1.725c0.579,0.748,1.017,1.643,1.312,2.684
				s0.442,2.211,0.442,3.508V50.75z M222.538,48.834c-0.138-1.475-0.585-2.668-1.342-3.582s-1.823-1.371-3.198-1.371
				c-0.669,0-1.272,0.123-1.813,0.369s-1.007,0.584-1.4,1.018c-0.394,0.432-0.712,0.953-0.958,1.563s-0.408,1.277-0.486,2.004
				H222.538z"/>
			<path d="M240.08,58.711h-2.182v-2.006h-0.118c-0.512,0.668-1.238,1.219-2.182,1.65c-0.943,0.434-1.956,0.65-3.036,0.65
				c-0.826,0-1.577-0.119-2.256-0.355c-0.678-0.234-1.258-0.57-1.739-1.002s-0.851-0.938-1.105-1.518
				c-0.256-0.58-0.384-1.213-0.384-1.902c0-0.824,0.188-1.566,0.561-2.225s0.904-1.225,1.592-1.695
				c0.688-0.473,1.523-0.83,2.506-1.076s2.083-0.369,3.302-0.369h2.831v-1.445c0-1.119-0.345-1.988-1.032-2.607
				c-0.688-0.619-1.681-0.93-2.978-0.93s-2.319,0.295-3.066,0.885s-1.12,1.355-1.12,2.299h-2.152c0-0.688,0.147-1.342,0.442-1.961
				c0.295-0.617,0.723-1.158,1.282-1.621c0.561-0.461,1.233-0.83,2.02-1.105s1.671-0.412,2.653-0.412
				c0.904,0,1.734,0.113,2.491,0.34c0.757,0.225,1.405,0.564,1.946,1.016c0.54,0.453,0.963,1.023,1.268,1.711
				s0.457,1.494,0.457,2.416V58.711z M237.869,50.574h-2.595c-1.848,0-3.307,0.309-4.378,0.928s-1.606,1.479-1.606,2.58
				c0,0.846,0.31,1.557,0.929,2.137s1.459,0.869,2.521,0.869c0.59,0,1.145-0.088,1.665-0.264c0.521-0.178,1.003-0.404,1.445-0.68
				c0.442-0.273,0.835-0.594,1.179-0.957s0.624-0.732,0.841-1.105V50.574z"/>
			<path d="M262.603,58.77h-4.01l-9.935-15.508h-0.295l0.118,2.654V58.77h-3.98V36.48h4.01l9.935,15.537h0.295l-0.088-2.652V36.48
				h3.95V58.77z"/>
			<path d="M282.502,50.484c0,1.318-0.201,2.502-0.604,3.553c-0.403,1.053-0.964,1.951-1.681,2.697
				c-0.718,0.748-1.573,1.322-2.565,1.725s-2.078,0.605-3.258,0.605c-1.179,0-2.265-0.203-3.257-0.605
				c-0.993-0.402-1.848-0.977-2.565-1.725c-0.718-0.746-1.277-1.645-1.681-2.697c-0.402-1.051-0.604-2.234-0.604-3.553
				c0-1.316,0.201-2.5,0.604-3.553c0.403-1.051,0.963-1.949,1.681-2.697c0.718-0.746,1.572-1.32,2.565-1.725
				c0.992-0.402,2.078-0.604,3.257-0.604c1.18,0,2.266,0.201,3.258,0.604c0.992,0.404,1.848,0.979,2.565,1.725
				c0.717,0.748,1.277,1.646,1.681,2.697C282.301,47.984,282.502,49.168,282.502,50.484z M278.612,50.484
				c0-0.746-0.099-1.443-0.295-2.092c-0.197-0.65-0.478-1.209-0.841-1.682c-0.363-0.471-0.806-0.84-1.326-1.105
				c-0.521-0.266-1.105-0.398-1.755-0.398c-0.648,0-1.233,0.133-1.754,0.398s-0.963,0.635-1.326,1.105
				c-0.364,0.473-0.645,1.031-0.841,1.682c-0.196,0.648-0.295,1.346-0.295,2.092c0,0.748,0.099,1.445,0.295,2.094
				s0.477,1.209,0.841,1.68c0.363,0.473,0.806,0.84,1.326,1.105s1.105,0.398,1.754,0.398c0.649,0,1.233-0.133,1.755-0.398
				c0.521-0.266,0.963-0.633,1.326-1.105c0.363-0.471,0.644-1.031,0.841-1.68C278.513,51.93,278.612,51.232,278.612,50.484z"/>
			<path d="M307.709,42.201l-5.041,16.568h-3.42l-2.713-8.992l-0.324-1.445h-0.295l-0.324,1.445l-2.712,8.992h-3.42l-5.041-16.568
				h4.039l2.299,8.607l0.384,1.77h0.295l0.383-1.77l2.565-8.607h3.36l2.565,8.607l0.383,1.77h0.295l0.383-1.77l2.3-8.607H307.709z"
				/>
		</g>
	</g>
</g>
</svg>
